<svg xmlns="http://www.w3.org/2000/svg" version="1.1" xmlns:xlink="http://www.w3.org/1999/xlink" xmlns:svgjs="http://svgjs.dev/svgjs" width="1500" height="935" viewBox="0 0 1500 935"><g transform="matrix(1,0,0,1,-0.9090909090909918,0.3785425101214628)"><svg viewBox="0 0 396 247" data-background-color="#ffffff" preserveAspectRatio="xMidYMid meet" height="935" width="1500" xmlns="http://www.w3.org/2000/svg" xmlns:xlink="http://www.w3.org/1999/xlink"><g id="tight-bounds" transform="matrix(1,0,0,1,0.2400000000000091,-0.09999999999999432)"><svg viewBox="0 0 395.52 247.2" height="247.2" width="395.52"><g><svg></svg></g><g><svg viewBox="0 0 395.52 247.2" height="247.2" width="395.52"><mask id="b72b5ce7-9b8b-42e9-8deb-3e4b1625a125"><rect width="640" height="400" fill="white"></rect><g transform="matrix(1,0,0,1,39.55199999999999,39.56098364627498)"><svg viewBox="0 0 316.416 168.07803270745003" height="168.07803270745003" width="316.416"><g><svg viewBox="0 0 316.416 168.07803270745003" height="168.07803270745003" width="316.416"><g><svg viewBox="0 0 316.416 168.07803270745003" height="168.07803270745003" width="316.416"><g><svg viewBox="0 0 316.416 168.07803270745003" height="168.07803270745003" width="316.416"><g id="SvgjsG1995"><svg viewBox="0 0 316.416 168.07803270745003" height="168.07803270745003" width="316.416" id="SvgjsSvg1994"><g><svg viewBox="0 0 316.416 168.07803270745003" height="168.07803270745003" width="316.416"><g transform="matrix(1,0,0,1,0,0)"><svg width="316.416" viewBox="-3.5 -40.55 83.55 44.849999999999994" height="168.07803270745003" data-palette-color="url(#3527d788-133d-4083-8541-20b994235f9b)"><path d="M12.45 0.3L12.45 0.3Q9.05 0.3 6.33-0.9 3.6-2.1 2.05-4.35 0.5-6.6 0.5-9.65L0.5-9.65Q0.5-11.55 1.33-12.18 2.15-12.8 3.8-12.8L3.8-12.8Q5.05-12.8 6-12.38 6.95-11.95 7-10.75L7-10.75Q7.1-9.55 7.53-8.3 7.95-7.05 9.05-6.23 10.15-5.4 12.2-5.4L12.2-5.4Q14.75-5.4 16.13-6.83 17.5-8.25 17.5-11.15L17.5-11.15 17.5-30.85 12.35-30.85Q11.4-30.85 10.88-31.7 10.35-32.55 10.35-33.75L10.35-33.75Q10.35-34.75 10.83-35.65 11.3-36.55 12.35-36.55L12.35-36.55 21.1-36.55Q22.2-36.55 23.1-36.02 24-35.5 24-34.5L24-34.5 24-11.15Q24-7 22.43-4.48 20.85-1.95 18.25-0.83 15.65 0.3 12.45 0.3ZM32.5 0L32.5 0Q31.1 0 30.2-0.65 29.3-1.3 29.3-2.05L29.3-2.05 29.3-21.75Q29.3-22.65 30.2-23.2 31.1-23.75 32.5-23.75L32.5-23.75Q33.85-23.75 34.8-23.2 35.75-22.65 35.75-21.75L35.75-21.75 35.75-2.05Q35.75-1.3 34.8-0.65 33.85 0 32.5 0ZM32.5-29.05L32.5-29.05Q31.05-29.05 30-30.03 28.95-31 28.95-32.2L28.95-32.2Q28.95-33.5 30-34.43 31.05-35.35 32.5-35.35L32.5-35.35Q33.95-35.35 34.97-34.43 36-33.5 36-32.2L36-32.2Q36-31 34.97-30.03 33.95-29.05 32.5-29.05ZM43.9 0L43.9 0Q42.49 0 41.59-0.65 40.7-1.3 40.7-2.05L40.7-2.05 40.7-21.75Q40.7-22.65 41.59-23.2 42.49-23.75 43.9-23.75L43.9-23.75Q45.09-23.75 45.92-23.2 46.75-22.65 46.75-21.75L46.75-21.75 46.75-20.25Q47.59-21.7 49.25-22.88 50.9-24.05 53.4-24.05L53.4-24.05Q55.55-24.05 57.2-22.65 58.84-21.25 59.65-19.05L59.65-19.05Q60.95-21.6 62.97-22.83 65-24.05 67.15-24.05L67.15-24.05Q69.44-24.05 71.47-22.88 73.5-21.7 74.77-19.43 76.05-17.15 76.05-13.9L76.05-13.9 76.05-2.05Q76.05-1.3 75.09-0.65 74.15 0 72.8 0L72.8 0Q71.5 0 70.55-0.65 69.59-1.3 69.59-2.05L69.59-2.05 69.59-13.9Q69.59-15.4 69.02-16.4 68.44-17.4 67.5-17.93 66.55-18.45 65.55-18.45L65.55-18.45Q64.55-18.45 63.67-17.93 62.8-17.4 62.2-16.4 61.59-15.4 61.59-13.95L61.59-13.95 61.59-2Q61.59-0.95 60.57-0.48 59.55 0 58.34 0L58.34 0Q57.25 0 56.2-0.48 55.14-0.95 55.14-2L55.14-2 55.14-13.9Q55.14-15.3 54.57-16.3 54-17.3 53.07-17.85 52.15-18.4 51.09-18.4L51.09-18.4Q50.09-18.4 49.2-17.9 48.3-17.4 47.72-16.4 47.15-15.4 47.15-13.9L47.15-13.9 47.15-2.05Q47.15-1.3 46.2-0.65 45.25 0 43.9 0Z" opacity="1" transform="matrix(1,0,0,1,0,0)" fill="black" class="wordmark-text-0" id="SvgjsPath1993" stroke-width="7" stroke="black" stroke-linejoin="round"></path></svg></g></svg></g></svg></g></svg></g></svg></g></svg></g></svg></g></mask><g transform="matrix(1,0,0,1,39.55199999999999,39.56098364627498)"><svg viewBox="0 0 316.416 168.07803270745003" height="168.07803270745003" width="316.416"><g><svg viewBox="0 0 316.416 168.07803270745003" height="168.07803270745003" width="316.416"><g><svg viewBox="0 0 316.416 168.07803270745003" height="168.07803270745003" width="316.416"><g><svg viewBox="0 0 316.416 168.07803270745003" height="168.07803270745003" width="316.416"><g id="textblocktransform"><svg viewBox="0 0 316.416 168.07803270745003" height="168.07803270745003" width="316.416" id="textblock"><g><svg viewBox="0 0 316.416 168.07803270745003" height="168.07803270745003" width="316.416"><g transform="matrix(1,0,0,1,0,0)"><svg width="316.416" viewBox="-3.5 -40.55 83.55 44.849999999999994" height="168.07803270745003" data-palette-color="url(#3527d788-133d-4083-8541-20b994235f9b)"></svg></g></svg></g></svg></g></svg></g></svg></g></svg></g></svg></g><g mask="url(#b72b5ce7-9b8b-42e9-8deb-3e4b1625a125)"><g transform="matrix(4.251420669389166, 0, 0, 4.251420669389166, 1, 4.565795947431695)"><svg xmlns="http://www.w3.org/2000/svg" xmlns:xlink="http://www.w3.org/1999/xlink" version="1.1" viewBox="1.7189999999999983 20.00262250704499 92.562 55.99737749295501" x="0" y="0" height="55.99737749295501" width="92.562" class="icon-none" data-fill-palette-color="accent" id="none"></svg></g></g></svg></g><defs></defs><mask id="89e12ab4-1cd6-4c89-a5e8-75d5b7bcc9e6"><g id="SvgjsG2005"><svg viewBox="0 0 395.52 247.2" height="247.2" width="395.52"><g><svg></svg></g><g><svg viewBox="0 0 395.52 247.2" height="247.2" width="395.52"><mask id="SvgjsMask2004"><rect width="640" height="400" fill="black"></rect><g transform="matrix(1,0,0,1,39.55199999999999,39.56098364627498)"><svg viewBox="0 0 316.416 168.07803270745003" height="168.07803270745003" width="316.416"><g><svg viewBox="0 0 316.416 168.07803270745003" height="168.07803270745003" width="316.416"><g><svg viewBox="0 0 316.416 168.07803270745003" height="168.07803270745003" width="316.416"><g><svg viewBox="0 0 316.416 168.07803270745003" height="168.07803270745003" width="316.416"><g id="SvgjsG2003"><svg viewBox="0 0 316.416 168.07803270745003" height="168.07803270745003" width="316.416" id="SvgjsSvg2002"><g><svg viewBox="0 0 316.416 168.07803270745003" height="168.07803270745003" width="316.416"><g transform="matrix(1,0,0,1,0,0)"><svg width="316.416" viewBox="-3.5 -40.55 83.55 44.849999999999994" height="168.07803270745003" data-palette-color="url(#3527d788-133d-4083-8541-20b994235f9b)"><path d="M12.45 0.3L12.45 0.3Q9.05 0.3 6.33-0.9 3.6-2.1 2.05-4.35 0.5-6.6 0.5-9.65L0.5-9.65Q0.5-11.55 1.33-12.18 2.15-12.8 3.8-12.8L3.8-12.8Q5.05-12.8 6-12.38 6.95-11.95 7-10.75L7-10.75Q7.1-9.55 7.53-8.3 7.95-7.05 9.05-6.23 10.15-5.4 12.2-5.4L12.2-5.4Q14.75-5.4 16.13-6.83 17.5-8.25 17.5-11.15L17.5-11.15 17.5-30.85 12.35-30.85Q11.4-30.85 10.88-31.7 10.35-32.55 10.35-33.75L10.35-33.75Q10.35-34.75 10.83-35.65 11.3-36.55 12.35-36.55L12.35-36.55 21.1-36.55Q22.2-36.55 23.1-36.02 24-35.5 24-34.5L24-34.5 24-11.15Q24-7 22.43-4.48 20.85-1.95 18.25-0.83 15.65 0.3 12.45 0.3ZM32.5 0L32.5 0Q31.1 0 30.2-0.65 29.3-1.3 29.3-2.05L29.3-2.05 29.3-21.75Q29.3-22.65 30.2-23.2 31.1-23.75 32.5-23.75L32.5-23.75Q33.85-23.75 34.8-23.2 35.75-22.65 35.75-21.75L35.75-21.75 35.75-2.05Q35.75-1.3 34.8-0.65 33.85 0 32.5 0ZM32.5-29.05L32.5-29.05Q31.05-29.05 30-30.03 28.95-31 28.95-32.2L28.95-32.2Q28.95-33.5 30-34.43 31.05-35.35 32.5-35.35L32.5-35.35Q33.95-35.35 34.97-34.43 36-33.5 36-32.2L36-32.2Q36-31 34.97-30.03 33.95-29.05 32.5-29.05ZM43.9 0L43.9 0Q42.49 0 41.59-0.65 40.7-1.3 40.7-2.05L40.7-2.05 40.7-21.75Q40.7-22.65 41.59-23.2 42.49-23.75 43.9-23.75L43.9-23.75Q45.09-23.75 45.92-23.2 46.75-22.65 46.75-21.75L46.75-21.75 46.75-20.25Q47.59-21.7 49.25-22.88 50.9-24.05 53.4-24.05L53.4-24.05Q55.55-24.05 57.2-22.65 58.84-21.25 59.65-19.05L59.65-19.05Q60.95-21.6 62.97-22.83 65-24.05 67.15-24.05L67.15-24.05Q69.44-24.05 71.47-22.88 73.5-21.7 74.77-19.43 76.05-17.15 76.05-13.9L76.05-13.9 76.05-2.05Q76.05-1.3 75.09-0.65 74.15 0 72.8 0L72.8 0Q71.5 0 70.55-0.65 69.59-1.3 69.59-2.05L69.59-2.05 69.59-13.9Q69.59-15.4 69.02-16.4 68.44-17.4 67.5-17.93 66.55-18.45 65.55-18.45L65.55-18.45Q64.55-18.45 63.67-17.93 62.8-17.4 62.2-16.4 61.59-15.4 61.59-13.95L61.59-13.95 61.59-2Q61.59-0.95 60.57-0.48 59.55 0 58.34 0L58.34 0Q57.25 0 56.2-0.48 55.14-0.95 55.14-2L55.14-2 55.14-13.9Q55.14-15.3 54.57-16.3 54-17.3 53.07-17.85 52.15-18.4 51.09-18.4L51.09-18.4Q50.09-18.4 49.2-17.9 48.3-17.4 47.72-16.4 47.15-15.4 47.15-13.9L47.15-13.9 47.15-2.05Q47.15-1.3 46.2-0.65 45.25 0 43.9 0Z" opacity="1" transform="matrix(1,0,0,1,0,0)" fill="black" class="wordmark-text-0" id="SvgjsPath2001" stroke-width="7" stroke="black" stroke-linejoin="round"></path></svg></g></svg></g></svg></g></svg></g></svg></g></svg></g></svg></g></mask><g transform="matrix(1,0,0,1,39.55199999999999,39.56098364627498)"><svg viewBox="0 0 316.416 168.07803270745003" height="168.07803270745003" width="316.416"><g><svg viewBox="0 0 316.416 168.07803270745003" height="168.07803270745003" width="316.416"><g><svg viewBox="0 0 316.416 168.07803270745003" height="168.07803270745003" width="316.416"><g><svg viewBox="0 0 316.416 168.07803270745003" height="168.07803270745003" width="316.416"><g id="SvgjsG2000"><svg viewBox="0 0 316.416 168.07803270745003" height="168.07803270745003" width="316.416" id="SvgjsSvg1999"><g><svg viewBox="0 0 316.416 168.07803270745003" height="168.07803270745003" width="316.416"><g transform="matrix(1,0,0,1,0,0)"><svg width="316.416" viewBox="-3.5 -40.55 83.55 44.849999999999994" height="168.07803270745003" data-palette-color="url(#3527d788-133d-4083-8541-20b994235f9b)"><path d="M12.45 0.3L12.45 0.3Q9.05 0.3 6.33-0.9 3.6-2.1 2.05-4.35 0.5-6.6 0.5-9.65L0.5-9.65Q0.5-11.55 1.33-12.18 2.15-12.8 3.8-12.8L3.8-12.8Q5.05-12.8 6-12.38 6.95-11.95 7-10.75L7-10.75Q7.1-9.55 7.53-8.3 7.95-7.05 9.05-6.23 10.15-5.4 12.2-5.4L12.2-5.4Q14.75-5.4 16.13-6.83 17.5-8.25 17.5-11.15L17.5-11.15 17.5-30.85 12.35-30.85Q11.4-30.85 10.88-31.7 10.35-32.55 10.35-33.75L10.35-33.75Q10.35-34.75 10.83-35.65 11.3-36.55 12.35-36.55L12.35-36.55 21.1-36.55Q22.2-36.55 23.1-36.02 24-35.5 24-34.5L24-34.5 24-11.15Q24-7 22.43-4.48 20.85-1.95 18.25-0.83 15.65 0.3 12.45 0.3ZM32.5 0L32.5 0Q31.1 0 30.2-0.65 29.3-1.3 29.3-2.05L29.3-2.05 29.3-21.75Q29.3-22.65 30.2-23.2 31.1-23.75 32.5-23.75L32.5-23.75Q33.85-23.75 34.8-23.2 35.75-22.65 35.75-21.75L35.75-21.75 35.75-2.05Q35.75-1.3 34.8-0.65 33.85 0 32.5 0ZM32.5-29.05L32.5-29.05Q31.05-29.05 30-30.03 28.95-31 28.95-32.2L28.95-32.2Q28.95-33.5 30-34.43 31.05-35.35 32.5-35.35L32.5-35.35Q33.95-35.35 34.97-34.43 36-33.5 36-32.2L36-32.2Q36-31 34.97-30.03 33.95-29.05 32.5-29.05ZM43.9 0L43.9 0Q42.49 0 41.59-0.65 40.7-1.3 40.7-2.05L40.7-2.05 40.7-21.75Q40.7-22.65 41.59-23.2 42.49-23.75 43.9-23.75L43.9-23.75Q45.09-23.75 45.92-23.2 46.75-22.65 46.75-21.75L46.75-21.75 46.75-20.25Q47.59-21.7 49.25-22.88 50.9-24.05 53.4-24.05L53.4-24.05Q55.55-24.05 57.2-22.65 58.84-21.25 59.65-19.05L59.65-19.05Q60.95-21.6 62.97-22.83 65-24.05 67.15-24.05L67.15-24.05Q69.44-24.05 71.47-22.88 73.5-21.7 74.77-19.43 76.05-17.15 76.05-13.9L76.05-13.9 76.05-2.05Q76.05-1.3 75.09-0.65 74.15 0 72.8 0L72.8 0Q71.5 0 70.55-0.65 69.59-1.3 69.59-2.05L69.59-2.05 69.59-13.9Q69.59-15.4 69.02-16.4 68.44-17.4 67.5-17.93 66.55-18.45 65.55-18.45L65.55-18.45Q64.55-18.45 63.67-17.93 62.8-17.4 62.2-16.4 61.59-15.4 61.59-13.95L61.59-13.95 61.59-2Q61.59-0.95 60.57-0.48 59.55 0 58.34 0L58.34 0Q57.25 0 56.2-0.48 55.14-0.95 55.14-2L55.14-2 55.14-13.9Q55.14-15.3 54.57-16.3 54-17.3 53.07-17.85 52.15-18.4 51.09-18.4L51.09-18.4Q50.09-18.4 49.2-17.9 48.3-17.4 47.72-16.4 47.15-15.4 47.15-13.9L47.15-13.9 47.15-2.05Q47.15-1.3 46.2-0.65 45.25 0 43.9 0Z" opacity="1" transform="matrix(1,0,0,1,0,0)" fill="white" class="wordmark-text-0" id="SvgjsPath1998"></path></svg></g></svg></g></svg></g></svg></g></svg></g></svg></g></svg></g><g mask="url(#b72b5ce7-9b8b-42e9-8deb-3e4b1625a125)"><g transform="matrix(4.251420669389166, 0, 0, 4.251420669389166, 1, 4.565795947431695)"><svg xmlns="http://www.w3.org/2000/svg" xmlns:xlink="http://www.w3.org/1999/xlink" version="1.1" viewBox="1.7189999999999983 20.00262250704499 92.562 55.99737749295501" x="0" y="0" height="55.99737749295501" width="92.562" class="icon-none" data-fill-palette-color="accent" id="SvgjsSvg1997"><path d="M28.288 74.572c-0.512 0-1.024-0.196-1.416-0.584l-24.568-24.572c-0.78-0.776-0.78-2.052 0-2.828l24.568-24.576c0.78-0.78 2.052-0.78 2.828 0 0.78 0.78 0.78 2.048 0 2.828l-23.156 23.156 23.156 23.156c0.78 0.78 0.78 2.048 0 2.828-0.388 0.396-0.9 0.592-1.412 0.592z" fill="black"></path><path d="M67.716 74.572c-0.512 0-1.024-0.196-1.416-0.584-0.78-0.78-0.78-2.048 0-2.828l23.156-23.16-23.156-23.156c-0.78-0.78-0.78-2.048 0-2.828s2.048-0.78 2.828 0l24.568 24.576c0.78 0.776 0.78 2.052 0 2.828l-24.568 24.572c-0.388 0.384-0.9 0.58-1.412 0.58z" fill="black"></path><path d="M38.288 76c-0.244 0-0.484-0.048-0.724-0.132-1.028-0.4-1.544-1.556-1.144-2.584l20-52c0.396-1.028 1.556-1.544 2.584-1.148 1.028 0.4 1.544 1.556 1.148 2.584l-20 52c-0.304 0.788-1.06 1.28-1.864 1.28z" fill="black"></path></svg></g></g></svg></g><defs><mask></mask></defs></svg><rect width="395.52" height="247.2" fill="black" stroke="none" visibility="hidden"></rect></g></mask><linearGradient x1="0.054" x2="0.941" y1="0.5" y2="0.5" id="3527d788-133d-4083-8541-20b994235f9b"><stop stop-color="#0f3054" offset="0"></stop><stop stop-color="#3b8dcb" offset="0.498"></stop><stop stop-color="#0f3054" offset="1"></stop></linearGradient><rect width="395.52" height="247.2" fill="url(#3527d788-133d-4083-8541-20b994235f9b)" mask="url(#89e12ab4-1cd6-4c89-a5e8-75d5b7bcc9e6)" data-fill-palette-color="primary"></rect><mask id="4a8d6da0-6af6-4d81-ac19-0e2b90f4207b"><g id="SvgjsG2022"><svg viewBox="0 0 395.52 247.2" height="247.2" width="395.52"><g><svg></svg></g><g><svg viewBox="0 0 395.52 247.2" height="247.2" width="395.52"><mask id="SvgjsMask2021"><rect width="640" height="400" fill="black"></rect><g transform="matrix(1,0,0,1,39.55199999999999,39.56098364627498)"><svg viewBox="0 0 316.416 168.07803270745003" height="168.07803270745003" width="316.416"><g><svg viewBox="0 0 316.416 168.07803270745003" height="168.07803270745003" width="316.416"><g><svg viewBox="0 0 316.416 168.07803270745003" height="168.07803270745003" width="316.416"><g><svg viewBox="0 0 316.416 168.07803270745003" height="168.07803270745003" width="316.416"><g id="SvgjsG2020"><svg viewBox="0 0 316.416 168.07803270745003" height="168.07803270745003" width="316.416" id="SvgjsSvg2019"><g><svg viewBox="0 0 316.416 168.07803270745003" height="168.07803270745003" width="316.416"><g transform="matrix(1,0,0,1,0,0)"><svg width="316.416" viewBox="-3.5 -40.55 83.55 44.849999999999994" height="168.07803270745003" data-palette-color="url(#3527d788-133d-4083-8541-20b994235f9b)"><path d="M12.45 0.3L12.45 0.3Q9.05 0.3 6.33-0.9 3.6-2.1 2.05-4.35 0.5-6.6 0.5-9.65L0.5-9.65Q0.5-11.55 1.33-12.18 2.15-12.8 3.8-12.8L3.8-12.8Q5.05-12.8 6-12.38 6.95-11.95 7-10.75L7-10.75Q7.1-9.55 7.53-8.3 7.95-7.05 9.05-6.23 10.15-5.4 12.2-5.4L12.2-5.4Q14.75-5.4 16.13-6.83 17.5-8.25 17.5-11.15L17.5-11.15 17.5-30.85 12.35-30.85Q11.4-30.85 10.88-31.7 10.35-32.55 10.35-33.75L10.35-33.75Q10.35-34.75 10.83-35.65 11.3-36.55 12.35-36.55L12.35-36.55 21.1-36.55Q22.2-36.55 23.1-36.02 24-35.5 24-34.5L24-34.5 24-11.15Q24-7 22.43-4.48 20.85-1.95 18.25-0.83 15.65 0.3 12.45 0.3ZM32.5 0L32.5 0Q31.1 0 30.2-0.65 29.3-1.3 29.3-2.05L29.3-2.05 29.3-21.75Q29.3-22.65 30.2-23.2 31.1-23.75 32.5-23.75L32.5-23.75Q33.85-23.75 34.8-23.2 35.75-22.65 35.75-21.75L35.75-21.75 35.75-2.05Q35.75-1.3 34.8-0.65 33.85 0 32.5 0ZM32.5-29.05L32.5-29.05Q31.05-29.05 30-30.03 28.95-31 28.95-32.2L28.95-32.2Q28.95-33.5 30-34.43 31.05-35.35 32.5-35.35L32.5-35.35Q33.95-35.35 34.97-34.43 36-33.5 36-32.2L36-32.2Q36-31 34.97-30.03 33.95-29.05 32.5-29.05ZM43.9 0L43.9 0Q42.49 0 41.59-0.65 40.7-1.3 40.7-2.05L40.7-2.05 40.7-21.75Q40.7-22.65 41.59-23.2 42.49-23.75 43.9-23.75L43.9-23.75Q45.09-23.75 45.92-23.2 46.75-22.65 46.75-21.75L46.75-21.75 46.75-20.25Q47.59-21.7 49.25-22.88 50.9-24.05 53.4-24.05L53.4-24.05Q55.55-24.05 57.2-22.65 58.84-21.25 59.65-19.05L59.65-19.05Q60.95-21.6 62.97-22.83 65-24.05 67.15-24.05L67.15-24.05Q69.44-24.05 71.47-22.88 73.5-21.7 74.77-19.43 76.05-17.15 76.05-13.9L76.05-13.9 76.05-2.05Q76.05-1.3 75.09-0.65 74.15 0 72.8 0L72.8 0Q71.5 0 70.55-0.65 69.59-1.3 69.59-2.05L69.59-2.05 69.59-13.9Q69.59-15.4 69.02-16.4 68.44-17.4 67.5-17.93 66.55-18.45 65.55-18.45L65.55-18.45Q64.55-18.45 63.67-17.93 62.8-17.4 62.2-16.4 61.59-15.4 61.59-13.95L61.59-13.95 61.59-2Q61.59-0.95 60.57-0.48 59.55 0 58.34 0L58.34 0Q57.25 0 56.2-0.48 55.14-0.95 55.14-2L55.14-2 55.14-13.9Q55.14-15.3 54.57-16.3 54-17.3 53.07-17.85 52.15-18.4 51.09-18.4L51.09-18.4Q50.09-18.4 49.2-17.9 48.3-17.4 47.72-16.4 47.15-15.4 47.15-13.9L47.15-13.9 47.15-2.05Q47.15-1.3 46.2-0.65 45.25 0 43.9 0Z" opacity="1" transform="matrix(1,0,0,1,0,0)" fill="black" class="wordmark-text-0" id="SvgjsPath2018" stroke-width="7" stroke="black" stroke-linejoin="round"></path></svg></g></svg></g></svg></g></svg></g></svg></g></svg></g></svg></g></mask><g transform="matrix(1,0,0,1,39.55199999999999,39.56098364627498)"><svg viewBox="0 0 316.416 168.07803270745003" height="168.07803270745003" width="316.416"><g><svg viewBox="0 0 316.416 168.07803270745003" height="168.07803270745003" width="316.416"><g><svg viewBox="0 0 316.416 168.07803270745003" height="168.07803270745003" width="316.416"><g><svg viewBox="0 0 316.416 168.07803270745003" height="168.07803270745003" width="316.416"><g id="SvgjsG2017"><svg viewBox="0 0 316.416 168.07803270745003" height="168.07803270745003" width="316.416" id="SvgjsSvg2016"><g><svg viewBox="0 0 316.416 168.07803270745003" height="168.07803270745003" width="316.416"><g transform="matrix(1,0,0,1,0,0)"><svg width="316.416" viewBox="-3.5 -40.55 83.55 44.849999999999994" height="168.07803270745003" data-palette-color="url(#3527d788-133d-4083-8541-20b994235f9b)"></svg></g></svg></g></svg></g></svg></g></svg></g></svg></g></svg></g><g mask="url(#b72b5ce7-9b8b-42e9-8deb-3e4b1625a125)"><g transform="matrix(4.251420669389166, 0, 0, 4.251420669389166, 1, 4.565795947431695)"><svg xmlns="http://www.w3.org/2000/svg" xmlns:xlink="http://www.w3.org/1999/xlink" version="1.1" viewBox="1.7189999999999983 20.00262250704499 92.562 55.99737749295501" x="0" y="0" height="55.99737749295501" width="92.562" class="icon-none" data-fill-palette-color="accent" id="SvgjsSvg2015"><path d="M28.288 74.572c-0.512 0-1.024-0.196-1.416-0.584l-24.568-24.572c-0.78-0.776-0.78-2.052 0-2.828l24.568-24.576c0.78-0.78 2.052-0.78 2.828 0 0.78 0.78 0.78 2.048 0 2.828l-23.156 23.156 23.156 23.156c0.78 0.78 0.78 2.048 0 2.828-0.388 0.396-0.9 0.592-1.412 0.592z" fill="white"></path><path d="M67.716 74.572c-0.512 0-1.024-0.196-1.416-0.584-0.78-0.78-0.78-2.048 0-2.828l23.156-23.16-23.156-23.156c-0.78-0.78-0.78-2.048 0-2.828s2.048-0.78 2.828 0l24.568 24.576c0.78 0.776 0.78 2.052 0 2.828l-24.568 24.572c-0.388 0.384-0.9 0.58-1.412 0.58z" fill="white"></path><path d="M38.288 76c-0.244 0-0.484-0.048-0.724-0.132-1.028-0.4-1.544-1.556-1.144-2.584l20-52c0.396-1.028 1.556-1.544 2.584-1.148 1.028 0.4 1.544 1.556 1.148 2.584l-20 52c-0.304 0.788-1.06 1.28-1.864 1.28z" fill="white"></path></svg></g></g></svg></g><defs><mask></mask></defs><mask><g id="SvgjsG2014"><svg viewBox="0 0 395.52 247.2" height="247.2" width="395.52"><g><svg></svg></g><g><svg viewBox="0 0 395.52 247.2" height="247.2" width="395.52"><mask id="SvgjsMask2013"><rect width="640" height="400" fill="black"></rect><g transform="matrix(1,0,0,1,39.55199999999999,39.56098364627498)"><svg viewBox="0 0 316.416 168.07803270745003" height="168.07803270745003" width="316.416"><g><svg viewBox="0 0 316.416 168.07803270745003" height="168.07803270745003" width="316.416"><g><svg viewBox="0 0 316.416 168.07803270745003" height="168.07803270745003" width="316.416"><g><svg viewBox="0 0 316.416 168.07803270745003" height="168.07803270745003" width="316.416"><g id="SvgjsG2012"><svg viewBox="0 0 316.416 168.07803270745003" height="168.07803270745003" width="316.416" id="SvgjsSvg2011"><g><svg viewBox="0 0 316.416 168.07803270745003" height="168.07803270745003" width="316.416"><g transform="matrix(1,0,0,1,0,0)"><svg width="316.416" viewBox="-3.5 -40.55 83.55 44.849999999999994" height="168.07803270745003" data-palette-color="url(#3527d788-133d-4083-8541-20b994235f9b)"><path d="M12.45 0.3L12.45 0.3Q9.05 0.3 6.33-0.9 3.6-2.1 2.05-4.35 0.5-6.6 0.5-9.65L0.5-9.65Q0.5-11.55 1.33-12.18 2.15-12.8 3.8-12.8L3.8-12.8Q5.05-12.8 6-12.38 6.95-11.95 7-10.75L7-10.75Q7.1-9.55 7.53-8.3 7.95-7.05 9.05-6.23 10.15-5.4 12.2-5.4L12.2-5.4Q14.75-5.4 16.13-6.83 17.5-8.25 17.5-11.15L17.5-11.15 17.5-30.85 12.35-30.85Q11.4-30.85 10.88-31.7 10.35-32.55 10.35-33.75L10.35-33.75Q10.35-34.75 10.83-35.65 11.3-36.55 12.35-36.55L12.35-36.55 21.1-36.55Q22.2-36.55 23.1-36.02 24-35.5 24-34.5L24-34.5 24-11.15Q24-7 22.43-4.48 20.85-1.95 18.25-0.83 15.65 0.3 12.45 0.3ZM32.5 0L32.5 0Q31.1 0 30.2-0.65 29.3-1.3 29.3-2.05L29.3-2.05 29.3-21.75Q29.3-22.65 30.2-23.2 31.1-23.75 32.5-23.75L32.5-23.75Q33.85-23.75 34.8-23.2 35.75-22.65 35.75-21.75L35.75-21.75 35.75-2.05Q35.75-1.3 34.8-0.65 33.85 0 32.5 0ZM32.5-29.05L32.5-29.05Q31.05-29.05 30-30.03 28.95-31 28.95-32.2L28.95-32.2Q28.95-33.5 30-34.43 31.05-35.35 32.5-35.35L32.5-35.35Q33.95-35.35 34.97-34.43 36-33.5 36-32.2L36-32.2Q36-31 34.97-30.03 33.95-29.05 32.5-29.05ZM43.9 0L43.9 0Q42.49 0 41.59-0.65 40.7-1.3 40.7-2.05L40.7-2.05 40.7-21.75Q40.7-22.65 41.59-23.2 42.49-23.75 43.9-23.75L43.9-23.75Q45.09-23.75 45.92-23.2 46.75-22.65 46.75-21.75L46.75-21.75 46.75-20.25Q47.59-21.7 49.25-22.88 50.9-24.05 53.4-24.05L53.4-24.05Q55.55-24.05 57.2-22.65 58.84-21.25 59.65-19.05L59.65-19.05Q60.95-21.6 62.97-22.83 65-24.05 67.15-24.05L67.15-24.05Q69.44-24.05 71.47-22.88 73.5-21.7 74.77-19.43 76.05-17.15 76.05-13.9L76.05-13.9 76.05-2.05Q76.05-1.3 75.09-0.65 74.15 0 72.8 0L72.8 0Q71.5 0 70.55-0.65 69.59-1.3 69.59-2.05L69.59-2.05 69.59-13.9Q69.59-15.4 69.02-16.4 68.44-17.4 67.5-17.93 66.55-18.45 65.55-18.45L65.55-18.45Q64.55-18.45 63.67-17.93 62.8-17.4 62.2-16.4 61.59-15.4 61.59-13.95L61.59-13.95 61.59-2Q61.59-0.95 60.57-0.48 59.55 0 58.34 0L58.34 0Q57.25 0 56.2-0.48 55.14-0.95 55.14-2L55.14-2 55.14-13.9Q55.14-15.3 54.57-16.3 54-17.3 53.07-17.85 52.15-18.4 51.09-18.4L51.09-18.4Q50.09-18.4 49.2-17.9 48.3-17.4 47.72-16.4 47.15-15.4 47.15-13.9L47.15-13.9 47.15-2.05Q47.15-1.3 46.2-0.65 45.25 0 43.9 0Z" opacity="1" transform="matrix(1,0,0,1,0,0)" fill="black" class="wordmark-text-0" id="SvgjsPath2010" stroke-width="7" stroke="black" stroke-linejoin="round"></path></svg></g></svg></g></svg></g></svg></g></svg></g></svg></g></svg></g></mask><g transform="matrix(1,0,0,1,39.55199999999999,39.56098364627498)"><svg viewBox="0 0 316.416 168.07803270745003" height="168.07803270745003" width="316.416"><g><svg viewBox="0 0 316.416 168.07803270745003" height="168.07803270745003" width="316.416"><g><svg viewBox="0 0 316.416 168.07803270745003" height="168.07803270745003" width="316.416"><g><svg viewBox="0 0 316.416 168.07803270745003" height="168.07803270745003" width="316.416"><g id="SvgjsG2009"><svg viewBox="0 0 316.416 168.07803270745003" height="168.07803270745003" width="316.416" id="SvgjsSvg2008"><g><svg viewBox="0 0 316.416 168.07803270745003" height="168.07803270745003" width="316.416"><g transform="matrix(1,0,0,1,0,0)"><svg width="316.416" viewBox="-3.5 -40.55 83.55 44.849999999999994" height="168.07803270745003" data-palette-color="url(#3527d788-133d-4083-8541-20b994235f9b)"><path d="M12.45 0.3L12.45 0.3Q9.05 0.3 6.33-0.9 3.6-2.1 2.05-4.35 0.5-6.6 0.5-9.65L0.5-9.65Q0.5-11.55 1.33-12.18 2.15-12.8 3.8-12.8L3.8-12.8Q5.05-12.8 6-12.38 6.95-11.95 7-10.75L7-10.75Q7.1-9.55 7.53-8.3 7.95-7.05 9.05-6.23 10.15-5.4 12.2-5.4L12.2-5.4Q14.75-5.4 16.13-6.83 17.5-8.25 17.5-11.15L17.5-11.15 17.5-30.85 12.35-30.85Q11.4-30.85 10.88-31.7 10.35-32.55 10.35-33.75L10.35-33.75Q10.35-34.75 10.83-35.65 11.3-36.55 12.35-36.55L12.35-36.55 21.1-36.55Q22.2-36.55 23.1-36.02 24-35.5 24-34.5L24-34.5 24-11.15Q24-7 22.43-4.48 20.85-1.95 18.25-0.83 15.65 0.3 12.45 0.3ZM32.5 0L32.5 0Q31.1 0 30.2-0.65 29.3-1.3 29.3-2.05L29.3-2.05 29.3-21.75Q29.3-22.65 30.2-23.2 31.1-23.75 32.5-23.75L32.5-23.75Q33.85-23.75 34.8-23.2 35.75-22.65 35.75-21.75L35.75-21.75 35.75-2.05Q35.75-1.3 34.8-0.65 33.85 0 32.5 0ZM32.5-29.05L32.5-29.05Q31.05-29.05 30-30.03 28.95-31 28.95-32.2L28.95-32.2Q28.95-33.5 30-34.43 31.05-35.35 32.5-35.35L32.5-35.35Q33.95-35.35 34.97-34.43 36-33.5 36-32.2L36-32.2Q36-31 34.97-30.03 33.95-29.05 32.5-29.05ZM43.9 0L43.9 0Q42.49 0 41.59-0.65 40.7-1.3 40.7-2.05L40.7-2.05 40.7-21.75Q40.7-22.65 41.59-23.2 42.49-23.75 43.9-23.75L43.9-23.75Q45.09-23.75 45.92-23.2 46.75-22.65 46.75-21.75L46.75-21.75 46.75-20.25Q47.59-21.7 49.25-22.88 50.9-24.05 53.4-24.05L53.4-24.05Q55.55-24.05 57.2-22.65 58.84-21.25 59.65-19.05L59.65-19.05Q60.95-21.6 62.97-22.83 65-24.05 67.15-24.05L67.15-24.05Q69.44-24.05 71.47-22.88 73.5-21.7 74.77-19.43 76.05-17.15 76.05-13.9L76.05-13.9 76.05-2.05Q76.05-1.3 75.09-0.65 74.15 0 72.8 0L72.8 0Q71.5 0 70.55-0.65 69.59-1.3 69.59-2.05L69.59-2.05 69.59-13.9Q69.59-15.4 69.02-16.4 68.44-17.4 67.5-17.93 66.55-18.45 65.55-18.45L65.55-18.45Q64.55-18.45 63.67-17.93 62.8-17.4 62.2-16.4 61.59-15.4 61.59-13.95L61.59-13.95 61.59-2Q61.59-0.95 60.57-0.48 59.55 0 58.34 0L58.34 0Q57.25 0 56.2-0.48 55.14-0.95 55.14-2L55.14-2 55.14-13.9Q55.14-15.3 54.57-16.3 54-17.3 53.07-17.85 52.15-18.4 51.09-18.4L51.09-18.4Q50.09-18.4 49.2-17.9 48.3-17.4 47.72-16.4 47.15-15.4 47.15-13.9L47.15-13.9 47.15-2.05Q47.15-1.3 46.2-0.65 45.25 0 43.9 0Z" opacity="1" transform="matrix(1,0,0,1,0,0)" fill="black" class="wordmark-text-0" id="SvgjsPath2007"></path></svg></g></svg></g></svg></g></svg></g></svg></g></svg></g></svg></g><g mask="url(#b72b5ce7-9b8b-42e9-8deb-3e4b1625a125)"><g transform="matrix(4.251420669389166, 0, 0, 4.251420669389166, 1, 4.565795947431695)"><svg xmlns="http://www.w3.org/2000/svg" xmlns:xlink="http://www.w3.org/1999/xlink" version="1.1" viewBox="1.7189999999999983 20.00262250704499 92.562 55.99737749295501" x="0" y="0" height="55.99737749295501" width="92.562" class="icon-none" data-fill-palette-color="accent" id="SvgjsSvg2006"><path d="M28.288 74.572c-0.512 0-1.024-0.196-1.416-0.584l-24.568-24.572c-0.78-0.776-0.78-2.052 0-2.828l24.568-24.576c0.78-0.78 2.052-0.78 2.828 0 0.78 0.78 0.78 2.048 0 2.828l-23.156 23.156 23.156 23.156c0.78 0.78 0.78 2.048 0 2.828-0.388 0.396-0.9 0.592-1.412 0.592z" fill="black"></path><path d="M67.716 74.572c-0.512 0-1.024-0.196-1.416-0.584-0.78-0.78-0.78-2.048 0-2.828l23.156-23.16-23.156-23.156c-0.78-0.78-0.78-2.048 0-2.828s2.048-0.78 2.828 0l24.568 24.576c0.78 0.776 0.78 2.052 0 2.828l-24.568 24.572c-0.388 0.384-0.9 0.58-1.412 0.58z" fill="black"></path><path d="M38.288 76c-0.244 0-0.484-0.048-0.724-0.132-1.028-0.4-1.544-1.556-1.144-2.584l20-52c0.396-1.028 1.556-1.544 2.584-1.148 1.028 0.4 1.544 1.556 1.148 2.584l-20 52c-0.304 0.788-1.06 1.28-1.864 1.28z" fill="black"></path></svg></g></g></svg></g><defs><mask></mask></defs></svg><rect width="395.52" height="247.2" fill="black" stroke="none" visibility="hidden"></rect></g></mask></svg><rect width="395.52" height="247.2" fill="black" stroke="none" visibility="hidden"></rect></g></mask><linearGradient x1="0.054" x2="0.941" y1="0.5" y2="0.5" id="7b915553-71ea-49d8-b1a2-bab511e24c2c"><stop stop-color="#0f3054" offset="0"></stop><stop stop-color="#3b8dcb" offset="0.498"></stop><stop stop-color="#0f3054" offset="1"></stop></linearGradient><rect width="395.52" height="247.2" fill="url(#7b915553-71ea-49d8-b1a2-bab511e24c2c)" mask="url(#4a8d6da0-6af6-4d81-ac19-0e2b90f4207b)" data-fill-palette-color="accent"></rect></svg><rect width="395.52" height="247.2" fill="none" stroke="none" visibility="hidden"></rect></g></svg></g></svg>